<?xml version="1.0" encoding="UTF-8"?>
<svg id="_圖層_1" xmlns="http://www.w3.org/2000/svg" version="1.1" viewBox="0 0 800 800">
  <!-- Generator: Adobe Illustrator 29.1.0, SVG Export Plug-In . SVG Version: 2.1.0 Build 142)  -->
  <defs>
    <style>
      .st0 {
        fill: #187ad8;
        fill-rule: evenodd;
      }
    </style>
  </defs>
  <path class="st0" d="M425,512.4c9.8,7.8,20.7,14.3,32.3,19.1,16.2,6.7,33.5,10.1,51,10.1s34.8-3.5,51-10.1c16.2-6.7,30.9-16.5,43.3-28.9,12.4-12.4,22.2-27.1,28.9-43.3s10.2-33.5,10.2-51-3.5-34.8-10.2-51-16.5-30.9-28.9-43.3c-5.1-5.1-10.7-9.8-16.6-14.1,5.9-4.2,11.4-8.9,16.6-14.1,12.4-12.4,22.2-27.1,28.9-43.3s10.2-33.5,10.2-51-3.5-34.8-10.2-51-16.5-30.9-28.9-43.3-27.1-22.2-43.3-28.9c-16.2-6.7-33.5-10.1-51-10.1h-216.7c-35.4,0-69.3,14-94.3,39.1-25,25-39.1,58.9-39.1,94.3s14,69.3,39.1,94.3c5.2,5.2,10.7,9.9,16.6,14.1-5.9,4.2-11.4,8.9-16.6,14.1-25,25-39.1,58.9-39.1,94.3s14,69.3,39.1,94.3c5.2,5.2,10.7,9.9,16.6,14.1-5.9,4.2-11.4,8.9-16.6,14.1-25,25-39.1,58.9-39.1,94.3s14,69.3,39.1,94.3c25,25,58.9,39.1,94.3,39.1s69.3-14,94.3-39.1c25-25,39.1-58.9,39.1-94.3v-112.8ZM291.7,108.3c-22.1,0-43.3,8.8-58.9,24.4s-24.4,36.8-24.4,58.9,8.8,43.3,24.4,58.9,36.8,24.4,58.9,24.4h83.3V108.3h-83.3ZM375,541.7h-83.3c-22.1,0-43.3,8.8-58.9,24.4-15.6,15.6-24.4,36.8-24.4,58.9s8.8,43.3,24.4,58.9c15.6,15.6,36.8,24.4,58.9,24.4s43.3-8.8,58.9-24.4c15.6-15.6,24.4-36.8,24.4-58.9v-83.3h0ZM291.7,325c-22.1,0-43.3,8.8-58.9,24.4-15.6,15.6-24.4,36.8-24.4,58.9s8.8,43.3,24.4,58.9c15.6,15.6,36.8,24.4,58.9,24.4h83.3v-166.7h-83.3ZM425,408.3c0,10.9,2.2,21.8,6.3,31.9s10.3,19.3,18.1,27c7.7,7.7,16.9,13.9,27,18.1s20.9,6.3,31.9,6.3,21.8-2.2,31.9-6.3c10.1-4.2,19.3-10.3,27-18.1,7.7-7.7,13.9-16.9,18.1-27s6.3-20.9,6.3-31.9-2.2-21.8-6.3-31.9-10.3-19.3-18.1-27c-7.7-7.7-16.9-13.9-27-18.1s-20.9-6.3-31.9-6.3-21.8,2.2-31.9,6.3c-10.1,4.2-19.3,10.3-27,18.1-7.7,7.7-13.9,16.9-18.1,27s-6.3,20.9-6.3,31.9h0ZM508.3,275c10.9,0,21.8-2.2,31.9-6.3,10.1-4.2,19.3-10.3,27-18.1,7.7-7.7,13.9-16.9,18.1-27,4.2-10.1,6.3-20.9,6.3-31.9s-2.2-21.8-6.3-31.9c-4.2-10.1-10.3-19.3-18.1-27-7.7-7.7-16.9-13.9-27-18.1s-20.9-6.3-31.9-6.3h-83.3v166.7h83.3Z"/>
</svg>